<svg xmlns="http://www.w3.org/2000/svg" viewBox="0 0 512 512">
  <defs>
    <!-- Deep space background with beautiful blue tones -->
    <linearGradient id="bg" x1="0%" y1="0%" x2="100%" y2="100%">
      <stop offset="0%" stop-color="#020617" />
      <stop offset="50%" stop-color="#0f172a" />
      <stop offset="100%" stop-color="#1e1b4b" />
    </linearGradient>
    
    <!-- Vivid tech blue/cyan for the main branding -->
    <linearGradient id="blueGlow" x1="0%" y1="0%" x2="0%" y2="100%">
      <stop offset="0%" stop-color="#7dd3fc" />
      <stop offset="50%" stop-color="#38bdf8" />
      <stop offset="100%" stop-color="#0284c7" />
    </linearGradient>
    
    <linearGradient id="cyanAccent" x1="0%" y1="100%" x2="0%" y2="0%">
      <stop offset="0%" stop-color="#2dd4bf" />
      <stop offset="100%" stop-color="#0ea5e9" />
    </linearGradient>

    <!-- Super massive glow effect -->
    <filter id="superglow" x="-50%" y="-50%" width="200%" height="200%">
      <feGaussianBlur stdDeviation="8" result="blur1" />
      <feGaussianBlur stdDeviation="30" result="blur2" />
      <feMerge>
        <feMergeNode in="blur2" />
        <feMergeNode in="blur1" />
        <feMergeNode in="SourceGraphic" />
      </feMerge>
    </filter>

    <filter id="softglow" x="-20%" y="-20%" width="140%" height="140%">
      <feGaussianBlur stdDeviation="4" result="blur" />
      <feMerge>
        <feMergeNode in="blur" />
        <feMergeNode in="SourceGraphic" />
      </feMerge>
    </filter>
  </defs>

  <!-- Base App Icon Shape (squircle style) -->
  <rect width="512" height="512" rx="120" fill="url(#bg)" />
  
  <!-- Subtle Universe Particles in Background -->
  <g fill="#ffffff" opacity="0.6">
    <circle cx="120" cy="140" r="2.5" />
    <circle cx="420" cy="180" r="1.5" />
    <circle cx="380" cy="400" r="3" fill="#38bdf8" />
    <circle cx="90" cy="380" r="2" fill="#818cf8" />
    <circle cx="256" cy="60" r="2" />
    <circle cx="200" cy="460" r="1.5" />
    <circle cx="450" cy="300" r="2" />
  </g>
  
  <g transform="translate(106, 106)">
    <!-- Decorative Tech Orbit/Hexagon outlining the H -->
    <path d="M 150 10 L 290 90 L 290 250 L 150 330 L 10 250 L 10 90 Z" fill="none" stroke="rgba(56, 189, 248, 0.2)" stroke-width="4" stroke-dasharray="12 18" stroke-linecap="round" />
    
    <g filter="url(#superglow)">
      <!-- Left pillar broken segments -->
      <path d="M 90 80 L 90 190" stroke="url(#blueGlow)" stroke-width="38" stroke-linecap="round" />
      <path d="M 90 230 L 90 260" stroke="url(#blueGlow)" stroke-width="38" stroke-linecap="round" />
      
      <!-- Right pillar (solid) -->
      <path d="M 210 80 L 210 260" stroke="url(#cyanAccent)" stroke-width="38" stroke-linecap="round" />
      
      <!-- Cross bar -->
      <path d="M 90 170 L 210 170" stroke="url(#cyanAccent)" stroke-width="38" stroke-linecap="round" />
      
      <!-- Accent particles/dots floating above and below the pillars -->
      <circle cx="90" cy="30" r="19" fill="#7dd3fc" />
      <circle cx="210" cy="310" r="19" fill="#2dd4bf" />
    </g>

    <!-- Sharp central highlights to make the paths pop -->
    <g filter="url(#softglow)">
      <!-- Left inner highlight -->
      <path d="M 90 100 L 90 170" stroke="#ffffff" stroke-width="10" stroke-linecap="round" opacity="0.8" />
      <path d="M 90 235 L 90 255" stroke="#ffffff" stroke-width="10" stroke-linecap="round" opacity="0.8" />
      <!-- Right inner highlight -->
      <path d="M 210 100 L 210 240" stroke="#ffffff" stroke-width="10" stroke-linecap="round" opacity="0.8" />
      <!-- Cross bar inner highlight -->
      <path d="M 110 170 L 190 170" stroke="#ffffff" stroke-width="10" stroke-linecap="round" opacity="0.8" />
    </g>
  </g>
</svg>
